<svg width="64" height="64" viewBox="0 0 64 64" fill="none" xmlns="http://www.w3.org/2000/svg">
<path d="M32.0002 5.33301C46.7278 5.33301 58.6668 17.2721 58.6668 31.9997C58.6668 46.7272 46.7278 58.6663 32.0002 58.6663C17.2726 58.6663 5.3335 46.7272 5.3335 31.9997C5.3335 17.2721 17.2726 5.33301 32.0002 5.33301Z" fill="#0f172a"/>
<path d="M36.4163 23.583C36.4163 25.9997 34.4163 27.9997 31.9997 27.9997C29.583 27.9997 27.583 25.9997 27.583 23.583C27.583 21.1663 29.583 19.1663 31.9997 19.1663C34.4163 19.1663 36.4163 21.1663 36.4163 23.583Z" fill="#38bdf8"/>
<path d="M42.6668 44.8337L32.0002 31.917L21.3335 44.8337H42.6668Z" fill="#22c55e"/>
</svg>